<?xml version="1.0" encoding="UTF-8"?>
<svg xmlns="http://www.w3.org/2000/svg" xmlns:xlink="http://www.w3.org/1999/xlink" width="211.42pt" height="72pt" viewBox="0 0 211.42 72" version="1.1">
<defs>
<clipPath id="clip1">
  <path d="M 175 15 L 211.421875 15 L 211.421875 57 L 175 57 Z M 175 15 "/>
</clipPath>
</defs>
<g id="surface1">
<path style=" stroke:none;fill-rule:nonzero;fill:rgb(30.952454%,15.522766%,53.134155%);fill-opacity:1;" d="M 90.671875 15.230469 L 98.96875 15.230469 L 118.125 40.414062 L 118.125 15.230469 L 127.007812 15.230469 L 127.007812 56.128906 L 119.355469 56.128906 L 99.546875 30.128906 L 99.546875 56.128906 L 90.671875 56.128906 L 90.671875 15.230469 "/>
<path style=" stroke:none;fill-rule:nonzero;fill:rgb(30.952454%,15.522766%,53.134155%);fill-opacity:1;" d="M 147.214844 40.003906 L 131.5 15.230469 L 142.019531 15.230469 L 151.777344 31.652344 L 161.707031 15.230469 L 171.925781 15.230469 L 156.214844 39.832031 L 156.214844 56.128906 L 147.214844 56.128906 L 147.214844 40.003906 "/>
<g clip-path="url(#clip1)" clip-rule="nonzero">
<path style=" stroke:none;fill-rule:nonzero;fill:rgb(30.952454%,15.522766%,53.134155%);fill-opacity:1;" d="M 175.78125 38.601562 L 175.78125 15.230469 L 184.78125 15.230469 L 184.78125 38.367188 C 184.78125 45.027344 188.101562 48.476562 193.601562 48.476562 C 199.085938 48.476562 202.421875 45.144531 202.421875 38.664062 L 202.421875 15.230469 L 211.414062 15.230469 L 211.414062 38.308594 C 211.414062 50.691406 204.460938 56.769531 193.476562 56.769531 C 182.5 56.769531 175.78125 50.636719 175.78125 38.601562 "/>
</g>
<path style=" stroke:none;fill-rule:nonzero;fill:rgb(100%,100%,100%);fill-opacity:1;" d="M 61.636719 67.222656 L 7.839844 67.222656 L 7.839844 5 L 61.636719 5 L 61.636719 67.222656 "/>
<path style=" stroke:none;fill-rule:nonzero;fill:rgb(30.952454%,15.522766%,53.134155%);fill-opacity:1;" d="M 31.726562 37.554688 C 24.347656 33.148438 25.085938 26.863281 28.144531 22.238281 C 28.210938 22.144531 28.230469 21.980469 28.210938 21.792969 C 28.082031 20.695312 26.882812 17.914062 26.382812 17.15625 C 26.253906 16.964844 26.144531 16.980469 26.132812 17.117188 C 26.089844 18.375 24.660156 21.527344 22.46875 25.15625 C 20.140625 29.019531 20.136719 37.398438 31.695312 37.726562 C 31.804688 37.730469 31.835938 37.617188 31.726562 37.554688 Z M 33.699219 37.226562 C 29.289062 27.804688 38.113281 21.714844 39.550781 20.394531 C 39.753906 20.210938 39.703125 20.039062 39.707031 19.828125 C 39.707031 16.859375 38.007812 12.058594 37.449219 11.371094 C 37.371094 11.265625 37.304688 11.3125 37.273438 11.417969 C 36.519531 14.34375 32.503906 18.703125 31.695312 19.660156 C 24.882812 27.757812 26.441406 32.691406 33.554688 37.34375 C 33.644531 37.398438 33.753906 37.335938 33.699219 37.226562 Z M 35.136719 36.828125 C 37.222656 26.832031 45.359375 26.585938 46.085938 24.691406 C 47.222656 21.730469 45.144531 16.480469 44.613281 15.859375 C 44.5625 15.792969 44.488281 15.835938 44.460938 15.890625 C 43.359375 18.3125 41.570312 20.621094 40.265625 21.679688 C 38.417969 23.167969 31.351562 28.40625 34.964844 36.835938 C 35.007812 36.9375 35.113281 36.914062 35.136719 36.828125 Z M 36.585938 37.695312 C 49.757812 38.171875 50.691406 26.167969 50.742188 21.675781 C 50.75 21.414062 50.617188 21.390625 50.554688 21.574219 C 50.164062 22.511719 48.453125 25.859375 43.703125 27.894531 C 39.460938 29.714844 36.910156 33.84375 36.464844 37.554688 C 36.445312 37.644531 36.523438 37.695312 36.585938 37.695312 Z M 39.582031 42.195312 L 39.582031 39.171875 L 29.191406 39.171875 L 29.191406 42.195312 Z M 33.507812 63.582031 C 33.589844 64.089844 34.683594 64.335938 34.929688 63.582031 L 37.445312 43.636719 L 31.332031 43.636719 Z M 71.996094 72 L 0 72 L 0 0 L 71.996094 0 L 71.996094 72 "/>
</g>
</svg>
